<svg width="375" height="44" viewBox="0 0 375 44" fill="none" xmlns="http://www.w3.org/2000/svg">
<rect width="375" height="44" fill="white"/>
<path d="M28.5342 27H30.4238V16.4312H28.5415L25.7803 18.3647V20.1812L28.4097 18.3354H28.5342V27Z" fill="black"/>
<path d="M37.1182 27.2563C39.8062 27.2563 41.4028 25.1543 41.4028 21.5947C41.4028 20.2544 41.1465 19.1265 40.6558 18.2549C39.9453 16.8999 38.7222 16.1675 37.1768 16.1675C34.877 16.1675 33.251 17.7129 33.251 19.8809C33.251 21.917 34.7158 23.3965 36.73 23.3965C37.9678 23.3965 38.9712 22.8179 39.4692 21.8145H39.4912C39.4912 21.8145 39.5205 21.8145 39.5278 21.8145C39.5425 21.8145 39.5938 21.8145 39.5938 21.8145C39.5938 24.2314 38.6782 25.6743 37.1328 25.6743C36.2246 25.6743 35.5215 25.1763 35.2798 24.3779H33.3975C33.7124 26.1138 35.1846 27.2563 37.1182 27.2563ZM37.1841 21.895C35.9683 21.895 35.104 21.0308 35.104 19.8223C35.104 18.6431 36.0122 17.7422 37.1914 17.7422C38.3706 17.7422 39.2788 18.6577 39.2788 19.8516C39.2788 21.0308 38.3926 21.895 37.1841 21.895Z" fill="black"/>
<path d="M44.7207 25.8794C45.4165 25.8794 45.8926 25.3813 45.8926 24.7222C45.8926 24.0557 45.4165 23.5649 44.7207 23.5649C44.0322 23.5649 43.5488 24.0557 43.5488 24.7222C43.5488 25.3813 44.0322 25.8794 44.7207 25.8794ZM44.7207 20.3862C45.4165 20.3862 45.8926 19.8955 45.8926 19.2363C45.8926 18.5698 45.4165 18.0791 44.7207 18.0791C44.0322 18.0791 43.5488 18.5698 43.5488 19.2363C43.5488 19.8955 44.0322 20.3862 44.7207 20.3862Z" fill="black"/>
<path d="M52.1035 27.2637C54.6304 27.2637 56.1318 25.2129 56.1318 21.7192C56.1318 18.2109 54.6084 16.1675 52.1035 16.1675C49.5913 16.1675 48.0679 18.2109 48.0679 21.7046C48.0679 25.2129 49.5693 27.2637 52.1035 27.2637ZM52.1035 25.6963C50.7632 25.6963 49.9795 24.3047 49.9795 21.7046C49.9795 19.1265 50.7778 17.7422 52.1035 17.7422C53.4292 17.7422 54.2202 19.1191 54.2202 21.7046C54.2202 24.3047 53.4438 25.6963 52.1035 25.6963Z" fill="black"/>
<path d="M58.0947 19.522V19.5513H59.8672V19.522C59.8672 18.4453 60.6143 17.7202 61.7202 17.7202C62.7603 17.7202 63.522 18.394 63.522 19.3242C63.522 20.0713 63.1631 20.6206 61.7202 22.0854L58.1973 25.689V27H65.5361V25.396H60.79V25.2715L63.002 23.0522C64.7964 21.2798 65.375 20.3423 65.375 19.207C65.375 17.4419 63.8662 16.1675 61.7788 16.1675C59.6108 16.1675 58.0947 17.5444 58.0947 19.522Z" fill="black"/>
<path opacity="0.44" fill-rule="evenodd" clip-rule="evenodd" d="M359 20.5L359.46 20.8066C360.11 21.2398 360.5 21.9691 360.5 22.75C360.5 23.5309 360.11 24.2602 359.46 24.6934L359 25V20.5ZM337.833 17H356.167C357.179 17 358 17.8954 358 19V26.5C358 27.6046 357.179 28.5 356.167 28.5H337.833C336.821 28.5 336 27.6046 336 26.5V19C336 17.8954 336.821 17 337.833 17ZM337.909 18C337.407 18 337 18.4477 337 19V26.5C337 27.0523 337.407 27.5 337.909 27.5H356.091C356.593 27.5 357 27.0523 357 26.5V19C357 18.4477 356.593 18 356.091 18H337.909Z" fill="black"/>
<path fill-rule="evenodd" clip-rule="evenodd" d="M338.875 19H352V26.5H338.875C338.392 26.5 338 26.0523 338 25.5V20C338 19.4477 338.392 19 338.875 19Z" fill="black"/>
<path fill-rule="evenodd" clip-rule="evenodd" d="M308.5 18C307.948 18 307.5 18.4477 307.5 19V27C307.5 27.5523 307.948 28 308.5 28H309.5C310.052 28 310.5 27.5523 310.5 27V19C310.5 18.4477 310.052 18 309.5 18H308.5ZM303 21C303 20.4477 303.448 20 304 20H305C305.552 20 306 20.4477 306 21V27C306 27.5523 305.552 28 305 28H304C303.448 28 303 27.5523 303 27V21ZM299.5 22C298.948 22 298.5 22.4477 298.5 23V27C298.5 27.5523 298.948 28 299.5 28H300.5C301.052 28 301.5 27.5523 301.5 27V23C301.5 22.4477 301.052 22 300.5 22H299.5ZM295 28C294.448 28 294 27.5523 294 27V24.5C294 23.9477 294.448 23.5 295 23.5H296C296.552 23.5 297 23.9477 297 24.5V27C297 27.5523 296.552 28 296 28H295Z" fill="black"/>
<path d="M323.637 19.2773C325.852 19.2774 327.984 20.1289 329.59 21.6557C329.711 21.7735 329.904 21.772 330.023 21.6523L331.179 20.4857C331.239 20.4249 331.273 20.3427 331.272 20.2571C331.272 20.1715 331.237 20.0897 331.176 20.0297C326.961 15.9901 320.311 15.9901 316.096 20.0297C316.035 20.0896 316.001 20.1715 316 20.257C315.999 20.3426 316.033 20.4249 316.093 20.4857L317.25 21.6523C317.369 21.7722 317.562 21.7737 317.683 21.6557C319.289 20.1288 321.42 19.2773 323.637 19.2773ZM323.637 23.073C324.854 23.0729 326.028 23.5255 326.931 24.3427C327.053 24.4586 327.245 24.4561 327.364 24.337L328.519 23.1703C328.579 23.1091 328.613 23.0261 328.612 22.9399C328.611 22.8536 328.576 22.7713 328.514 22.7113C325.766 20.1549 321.51 20.1549 318.762 22.7113C318.7 22.7713 318.664 22.8536 318.663 22.9399C318.662 23.0262 318.696 23.1092 318.757 23.1703L319.912 24.337C320.031 24.4561 320.223 24.4586 320.345 24.3427C321.247 23.526 322.42 23.0735 323.637 23.073ZM325.856 25.8573C325.917 25.7967 325.951 25.7133 325.95 25.6268C325.948 25.5403 325.91 25.4584 325.846 25.4003C324.571 24.3214 322.703 24.3214 321.427 25.4003C321.363 25.4583 321.325 25.5402 321.323 25.6267C321.322 25.7132 321.356 25.7967 321.417 25.8573L323.415 27.873C323.473 27.9322 323.553 27.9656 323.637 27.9656C323.72 27.9656 323.8 27.9322 323.858 27.873L325.856 25.8573Z" fill="black"/>
</svg>
